mtllib materials.mtl
v -0.2210845 -0.1586077 0.1349819
v -0.2210845 -0.1586077 -0.1350181
v -0.2210845 0.1413922 -0.1350181
v -0.2210846 0.1413922 0.1349819
v 0.4189154 -0.1586075 0.134982
v 0.4189154 0.1413925 0.134982
v 0.4189154 0.1413925 -0.1350179
v 0.4189154 -0.1586075 -0.1350179
v -0.3510846 0.4413923 -0.1350182
v -0.04108465 0.4413923 -0.1350181
v -0.04108477 0.4413923 0.134982
v -0.3510847 0.4413923 0.1349819
v -0.3510845 0.1413922 -0.1350182
v -0.3510846 0.1413922 0.1349819
v -0.04108465 0.1413922 0.134982
v -0.04108453 0.1413922 -0.1350181
v -0.3360845 0.1563923 -0.07501805
v -0.3360845 0.2663922 -0.07501805
v -0.4360844 0.2563922 -0.05501804
v -0.3360845 0.1563923 0.07498196
v -0.4360844 0.2563922 0.05498195
v -0.3360845 0.2663922 0.07498196
v -0.4360844 0.1663923 -0.05501804
v -0.4360844 0.1663923 0.05498195
v -0.1510847 -0.3586075 0.134982
v -0.1510847 -0.08860755 0.1349819
v -0.1510847 -0.08860755 0.06498188
v -0.1510845 -0.3586075 0.06498203
v -0.2210846 -0.3586075 0.134982
v -0.2210846 -0.3586075 0.06498203
v -0.2210846 -0.08860755 0.06498188
v -0.2210847 -0.08860755 0.1349819
v -0.1510847 -0.3486075 -0.06501797
v -0.1510847 -0.08860755 -0.06501809
v -0.1510847 -0.08860755 -0.1350181
v -0.1510845 -0.3486075 -0.135018
v -0.2210846 -0.3486075 -0.06501797
v -0.2210846 -0.3486075 -0.135018
v -0.2210846 -0.08860755 -0.1350181
v -0.2210847 -0.08860755 -0.06501809
v 0.3489153 -0.3786077 0.134982
v 0.3489155 -0.0786078 0.1349819
v 0.4189154 -0.0786078 0.1349819
v 0.4189154 -0.3786077 0.1349821
v 0.3489153 -0.3786077 0.064982
v 0.4189154 -0.3786077 0.064982
v 0.4189155 -0.0786078 0.06498194
v 0.3489155 -0.0786078 0.06498194
v 0.4289155 -0.3886077 0.1449818
v 0.4289155 -0.3486075 0.1449818
v 0.4289156 -0.3486075 0.05498186
v 0.4289156 -0.3886077 0.05498183
v 0.3389155 -0.3886077 0.1449818
v 0.3389156 -0.3886077 0.0549818
v 0.3389156 -0.3486075 0.05498186
v 0.3389155 -0.3486075 0.1449818
v 0.4189153 0.0713923 0.03498203
v 0.4189153 0.1413925 0.03498203
v 0.6289152 0.1413925 0.03498203
v 0.6289152 0.0713923 0.03498203
v 0.4189153 0.0713923 -0.03501797
v 0.6289152 0.0713923 -0.03501797
v 0.6289152 0.1413925 -0.03501797
v 0.4189153 0.1413925 -0.03501797
v 0.5589155 0.1413922 0.03498194
v 0.5689155 0.2713923 0.03498194
v 0.6189157 0.2713923 0.03498194
v 0.6289157 0.1413922 0.03498194
v 0.5589155 0.1413922 -0.03501806
v 0.6289157 0.1413922 -0.03501806
v 0.6189157 0.2713923 -0.03501806
v 0.5689155 0.2713923 -0.03501806
v -0.2390257 0.1721082 0.1964841
v -0.2363719 0.4266626 0.106512
v -0.2364813 0.4366609 0.1347967
v -0.2391351 0.1821065 0.2247688
v -0.04903615 0.1705782 0.1977599
v -0.04914558 0.1805766 0.2260445
v -0.04649174 0.4351311 0.1360724
v -0.04638231 0.4251328 0.1077878
v -0.2404313 0.1826506 -0.2259606
v -0.2393245 0.4365222 -0.1340482
v -0.2393391 0.4263098 -0.10584
v -0.240446 0.1724379 -0.1977523
v -0.05043292 0.1818864 -0.2261385
v -0.05044758 0.171674 -0.1979303
v -0.04934072 0.4255458 -0.106018
v -0.04932606 0.4357584 -0.1342263
v -0.3310846 0.331392 0.05498192
v -0.3310846 0.3813922 0.05498192
v -0.3610846 0.3813922 0.05498192
v -0.3610846 0.331392 0.05498192
v -0.3310846 0.331392 0.1049819
v -0.3610846 0.331392 0.1049819
v -0.3610846 0.3813922 0.1049819
v -0.3310846 0.3813922 0.1049819
v -0.3310845 0.331392 -0.105018
v -0.3310845 0.3813922 -0.105018
v -0.3610845 0.3813922 -0.105018
v -0.3610845 0.331392 -0.105018
v -0.3310845 0.331392 -0.05501804
v -0.3610845 0.331392 -0.05501804
v -0.3610845 0.3813922 -0.05501804
v -0.3310845 0.3813922 -0.05501804
v -0.4360844 0.1863921 -0.02501807
v -0.4360844 0.2363923 -0.02501804
v -0.4560844 0.2363923 -0.02501804
v -0.4560844 0.1863921 -0.02501807
v -0.4360844 0.1863921 0.02498192
v -0.4560844 0.1863921 0.02498192
v -0.4560844 0.2363923 0.02498195
v -0.4360844 0.2363923 0.02498195
v -0.1410846 -0.3686078 0.05498186
v -0.1410846 -0.3286076 0.05498183
v -0.2310845 -0.3286076 0.05498177
v -0.2310845 -0.3686078 0.05498177
v -0.1410846 -0.3686078 0.1449818
v -0.2310846 -0.3686078 0.1449818
v -0.2310845 -0.3286076 0.1449818
v -0.1410846 -0.3286076 0.1449819
v -0.1410844 -0.3686078 -0.145018
v -0.1410844 -0.3286076 -0.145018
v -0.2310843 -0.3286076 -0.145018
v -0.2310843 -0.3686078 -0.145018
v -0.1410844 -0.3686078 -0.05501801
v -0.2310843 -0.3686078 -0.05501804
v -0.2310843 -0.3286076 -0.05501804
v -0.1410844 -0.3286076 -0.05501801
v 0.3489155 -0.3786075 -0.06501803
v 0.3489156 -0.08860755 -0.06501806
v 0.4189155 -0.08860755 -0.06501806
v 0.4189155 -0.3786075 -0.06501794
v 0.3489155 -0.3786075 -0.1350181
v 0.4189155 -0.3786075 -0.1350181
v 0.4189156 -0.08860755 -0.1350181
v 0.3489156 -0.08860755 -0.1350181
v 0.4289154 -0.3886077 -0.05501816
v 0.4289154 -0.3486075 -0.05501822
v 0.4289155 -0.3486075 -0.1450182
v 0.4289155 -0.3886077 -0.1450182
v 0.3389155 -0.3886077 -0.05501819
v 0.3389155 -0.3886077 -0.1450182
v 0.3389155 -0.3486075 -0.1450182
v 0.3389153 -0.3486075 -0.05501822
vn -1 -1.399658E-07 -8.742278E-08
vn 1 -4.583883E-08 -2.295621E-08
vn 3.37827E-07 -1 1.086551E-08
vn -2.912609E-07 1 1.155528E-08
vn -9.619273E-08 1.357819E-15 1
vn 1.563407E-07 5.689331E-15 -1
vn -2.114988E-08 1 -3.265058E-08
vn 1.773717E-07 -1 4.509508E-08
vn 3.965631E-07 1.49012E-08 -1
vn -3.88071E-07 -2.384185E-07 1
vn -1 -3.372813E-07 -4.680068E-07
vn 1 3.54758E-07 4.956016E-07
vn -0.1961164 1.087557E-09 -0.9805806
vn -0.1961164 -1.087557E-09 0.9805806
vn 1 4.289744E-09 0
vn -1 1.301981E-08 0
vn -0.09950373 -0.9950373 -3.136981E-09
vn -0.09950373 0.9950373 -2.423437E-09
vn -0.1961165 -1.329236E-09 -0.9805806
vn -0.1961165 -1.329236E-09 0.9805806
vn 1 2.016778E-07 9.107176E-07
vn -1 -2.292721E-07 -5.528062E-08
vn -4.723879E-08 5.245761E-07 1
vn 4.723882E-08 -4.792418E-07 -1
vn -3.259634E-08 -1 -1.085656E-07
vn -2.347121E-07 1 -4.768371E-07
vn 1 2.022084E-07 8.967686E-07
vn -1 -2.308641E-07 -2.889884E-08
vn -4.723877E-08 4.880334E-07 1
vn 4.72388E-08 -3.79038E-07 -1
vn -4.840971E-08 -1 -2.128675E-09
vn -2.347121E-07 1 -4.768371E-07
vn -8.25595E-07 1.961989E-07 1
vn 4.50583E-08 -1.341104E-07 -1
vn -1 4.06447E-07 -3.299544E-08
vn 1 -2.130866E-07 3.299543E-08
vn 3.405965E-08 -1 1.058284E-07
vn 1.788139E-07 1 -1.660415E-07
vn 1 -9.313197E-08 4.273995E-07
vn -1 9.313202E-08 -4.927213E-07
vn -2.10272E-07 1.093784E-06 1
vn 2.102719E-07 9.189019E-07 -1
vn 1.47172E-09 -1 1.192093E-07
vn -5.41304E-08 1 -1.192093E-07
vn 5.575264E-10 0 1
vn -5.575264E-10 0 -1
vn -1 4.683222E-08 0
vn 1 -4.683222E-08 0
vn 0 -1 -1.561074E-08
vn 0 1 1.561074E-08
vn -1.442352E-08 2.865607E-08 1
vn 1.442352E-08 2.865607E-08 -1
vn -0.9970546 0.07669576 0
vn 0.9970546 0.07669575 0
vn 0 -1 2.676127E-08
vn 0 1 -1.650077E-08
vn -0.999945 0.008051589 -0.006714474
vn 0.999945 -0.008051589 0.006714474
vn 0.003647396 -0.3332777 -0.9428217
vn -0.003647396 0.3332777 0.9428217
vn -0.009828994 -0.9427944 0.33323
vn 0.009828994 0.9427944 -0.33323
vn -0.9999915 0.004020918 0.0009368996
vn 0.9999915 -0.004020918 -0.0009368996
vn 0.0004879077 0.3404169 -0.9402745
vn -0.0004879077 -0.3404169 0.9402745
vn -0.0040997 -0.940266 -0.3404159
vn 0.0040997 0.940266 0.3404159
vn -3.104406E-09 0 -1
vn 3.104406E-09 0 1
vn 1 3.911555E-09 0
vn -1 -3.911555E-09 0
vn 0 -1 6.519258E-09
vn 0 1 -6.519258E-09
vn -3.104406E-09 0 -1
vn 3.104406E-09 0 1
vn 1 3.911555E-09 0
vn -1 -3.911555E-09 0
vn 0 -1 6.519258E-09
vn 0 1 -6.519258E-09
vn -2.342276E-07 5.476176E-07 -1
vn 2.076888E-07 -7.897606E-07 1
vn 1 -5.254525E-07 -9.126942E-08
vn -1 6.80983E-07 2.589078E-07
vn -7.348138E-07 -1 -2.334873E-06
vn 6.183979E-07 1 1.221877E-07
vn 6.062133E-07 -3.352733E-08 -1
vn -6.715351E-07 3.352739E-08 1
vn 1 7.957605E-07 5.08295E-07
vn -1 1.216925E-06 -5.082952E-07
vn -2.682209E-07 -1 5.813292E-08
vn 2.682208E-07 1 -5.474236E-09
vn 6.609845E-08 -3.632143E-07 -1
vn -2.484821E-07 -3.352756E-07 1
vn 1 9.903038E-07 1.440446E-07
vn -1 7.895517E-07 -1.440445E-07
vn 5.960464E-08 -1 -6.107636E-08
vn -1.03414E-10 1 -6.680683E-10
vn -8.755713E-07 2.330236E-07 1
vn 6.536693E-08 -3.391296E-08 -1
vn -1 4.172876E-07 -3.299545E-08
vn 1 -2.397398E-07 3.299544E-08
vn -4.257473E-08 -1 8.241247E-08
vn 1.490116E-07 1 -1.660415E-07
vn 1 8.171361E-08 4.273995E-07
vn -1 -8.171357E-08 -4.927213E-07
vn -2.102722E-07 1.093784E-06 1
vn 2.102717E-07 9.189019E-07 -1
vn 1.763173E-07 -1 1.192094E-07
vn -2.289759E-07 1 -1.192094E-07
vt 0.1671642 -0.1927385
vt 0.189135 -0.1770451
vt 0.1716978 -0.1526331
vt 0.149727 -0.1683266
vt -0.1671641 -0.1927386
vt -0.1497269 -0.1683266
vt -0.1716977 -0.1526331
vt -0.1891349 -0.1770451
vt 0.01944021 0.1257897
vt 0.04096574 0.1860612
vt 0.01553871 0.1951423
vt -0.005986823 0.1348708
vt -0.01944022 0.1257897
vt 0.005986811 0.1348708
vt -0.01553872 0.1951423
vt -0.04096575 0.1860612
vt -0.2830862 -0.001788855
vt -0.2562534 0.01162754
vt -0.2848751 0.06887089
vt -0.3117079 0.05545449
vt 0.2830862 -0.001788867
vt 0.3117079 0.05545447
vt 0.284875 0.06887088
vt 0.2562534 0.01162754
vt 0.01035918 0.1226282
vt -6.725446E-05 0.1518222
vt -0.02549429 0.1427411
vt -0.01506785 0.1135471
vt -0.0103592 0.1226282
vt 0.01506783 0.1135471
vt 0.02549427 0.1427411
vt 6.723867E-05 0.1518222
vt 0.2236068 0.01341637
vt 0.2504396 -3.178085E-08
vt 0.2643032 0.02772721
vt 0.2374704 0.04114361
vt -0.2236068 0.01341638
vt -0.2374704 0.04114362
vt -0.2643032 0.02772722
vt -0.2504396 -2.155181E-08
vt 0.1542608 -0.128221
vt 0.13229 -0.1439144
vt 0.1497272 -0.1683264
vt 0.171698 -0.152633
vt -0.1542608 -0.128221
vt -0.171698 -0.152633
vt -0.1497272 -0.1683264
vt -0.13229 -0.1439144
vt 0.2525276 0.01285047
vt 0.2425951 0.01757745
vt 0.2391157 0.007939322
vt -0.2457682 -0.01469778
vt -0.2320942 -0.01882346
vt -0.2361262 -0.00940316
vt -0.1659435 -0.1549
vt -0.1537375 -0.1636185
vt -0.1473439 -0.1546675
vt -0.1595499 -0.1459489
vt 0.1637348 -0.1552487
vt 0.1585037 -0.1479251
vt 0.1495526 -0.1543187
vt 0.1547837 -0.1616423
vt 0.005644418 0.142263
vt 0.003963406 0.1321548
vt 0.01425347 0.1282671
vt 0.01967633 0.1369615
vt 0.01285796 0.1015074
vt -0.001335686 0.09665556
vt 0.003807497 0.08779287
vt 0.01421617 0.09135089
vt 0.2391157 0.007939324
vt 0.2472423 0.004071793
vt 0.2525276 0.01285047
vt -0.2457682 -0.01469779
vt -0.239983 -0.02315543
vt -0.2320942 -0.01882347
vt -0.1787893 -0.2090129
vt -0.1630958 -0.1870422
vt -0.1687919 -0.1829735
vt -0.1844854 -0.2049443
vt 0.1787889 -0.2090132
vt 0.1844851 -0.2049445
vt 0.1687917 -0.1829737
vt 0.1630955 -0.1870424
vt -0.3041052 -0.004472178
vt -0.3009747 -0.01073316
vt -0.2768252 0.001341597
vt -0.2799557 0.007602592
vt 0.3041052 -0.004472167
vt 0.2799557 0.007602592
vt 0.2768252 0.001341608
vt 0.3009747 -0.01073316
vt 0.02179464 0.132382
vt 0.01520245 0.1347363
vt 0.01284809 0.1281441
vt 0.01944029 0.1257898
vt -0.02179443 0.132382
vt -0.01944007 0.1257898
vt -0.01284788 0.1281441
vt -0.01520223 0.1347363
vt -0.1944827 -0.1965744
vt -0.1793704 -0.1754174
vt -0.1850666 -0.1713487
vt -0.2001788 -0.1925057
vt 0.1944824 -0.1965747
vt 0.2001785 -0.192506
vt 0.1850663 -0.171349
vt 0.1793702 -0.1754176
vt -0.3032108 -0.004024962
vt -0.3000803 -0.01028595
vt -0.2768252 0.0013416
vt -0.2799557 0.007602595
vt 0.3032108 -0.004024944
vt 0.2799557 0.007602601
vt 0.2768252 0.001341617
vt 0.3000803 -0.01028594
vt 0.002959767 0.1391087
vt -0.003632424 0.1414631
vt -0.005986781 0.1348709
vt 0.0006054146 0.1325165
vt -0.002959586 0.1391087
vt -0.0006052316 0.1325165
vt 0.005986961 0.1348709
vt 0.003632609 0.1414631
vt -0.3282548 0.0393547
vt -0.301422 0.05277113
vt -0.3045525 0.05903211
vt -0.3313853 0.0456157
vt 0.3282548 0.03935477
vt 0.3313853 0.04561577
vt 0.3045525 0.05903218
vt 0.3014219 0.05277119
vt 0.1799512 -0.2106407
vt 0.1856474 -0.2065721
vt 0.1682102 -0.18216
vt 0.1625141 -0.1862287
vt -0.1799513 -0.2106407
vt -0.1625142 -0.1862287
vt -0.1682103 -0.18216
vt -0.1856474 -0.2065721
vt 0.03861137 0.1794691
vt 0.04096574 0.1860613
vt 0.03437354 0.1884156
vt 0.03201918 0.1818234
vt -0.03861139 0.1794692
vt -0.03201919 0.1818235
vt -0.03437355 0.1884157
vt -0.04096574 0.1860614
vt -0.179719 -0.2120355
vt -0.177394 -0.2087806
vt -0.1847176 -0.2035495
vt -0.1870426 -0.2068044
vt 0.179719 -0.2120355
vt 0.1870426 -0.2068044
vt 0.1847177 -0.2035494
vt 0.1773941 -0.2087806
vt -0.3327269 0.0460629
vt -0.328702 0.03801305
vt -0.3251243 0.03980192
vt -0.3291492 0.04785176
vt 0.3327269 0.04606306
vt 0.3291492 0.04785193
vt 0.3251243 0.03980208
vt 0.328702 0.03801321
vt 0.0422438 0.1866667
vt 0.03376812 0.1896938
vt 0.03074109 0.1812181
vt 0.03921677 0.178191
vt -0.04224379 0.1866667
vt -0.03921676 0.178191
vt -0.0307411 0.1812181
vt -0.03376812 0.1896937
vt -0.2911361 0.06574038
vt -0.284875 0.06887089
vt -0.2942665 0.08765385
vt -0.3005275 0.08452334
vt 0.2911361 0.06574038
vt 0.3005275 0.08452334
vt 0.2942665 0.08765385
vt 0.284875 0.06887089
vt 0.1619329 -0.1682103
vt 0.1676291 -0.1641417
vt 0.1635604 -0.1584455
vt 0.1578643 -0.1625142
vt -0.1619329 -0.1682103
vt -0.1578643 -0.1625142
vt -0.1635604 -0.1584455
vt -0.1676291 -0.1641417
vt 0.03154836 0.1894246
vt 0.03861142 0.2092012
vt 0.03201922 0.2115556
vt 0.02495616 0.191779
vt -0.03154836 0.1894246
vt -0.02495616 0.191779
vt -0.03201922 0.2115556
vt -0.03861142 0.2092012
vt -0.2911361 0.08139288
vt -0.2799557 0.08810108
vt -0.2821918 0.09257324
vt -0.2942666 0.08765388
vt 0.2911361 0.08139287
vt 0.2942666 0.08765388
vt 0.2821918 0.09257324
vt 0.2799557 0.08810108
vt 0.1384799 -0.1585815
vt 0.1444269 -0.1548892
vt 0.1375494 -0.1438121
vt 0.1316025 -0.1475045
vt -0.1806699 -0.160776
vt -0.172245 -0.1508251
vt -0.1775874 -0.146302
vt -0.1860123 -0.1562529
vt 0.03625706 0.2026091
vt 0.03861142 0.2092013
vt 0.03201922 0.2115556
vt 0.02966486 0.2049634
vt -0.0365934 0.2035508
vt -0.0300012 0.2059052
vt -0.03168289 0.2106139
vt -0.03827509 0.2082595
vt 0.1432443 -0.1679261
vt 0.1357376 -0.1419906
vt 0.1328559 -0.1428247
vt 0.1403626 -0.1687602
vt -0.1432443 -0.1679261
vt -0.1403626 -0.1687602
vt -0.1328559 -0.1428247
vt -0.1357376 -0.1419906
vt 0.2367171 0.002862709
vt 0.2465422 0.01912521
vt 0.2234323 0.03308707
vt 0.2136073 0.01682456
vt -0.2367171 0.002862707
vt -0.2136073 0.01682456
vt -0.2234323 0.03308707
vt -0.2465422 0.01912521
vt -0.06804346 0.1386509
vt -0.06508831 0.1381342
vt -0.06181556 0.1568502
vt -0.06477072 0.157367
vt 0.06804346 0.1386509
vt 0.06477071 0.157367
vt 0.06181556 0.1568502
vt 0.06508831 0.1381342
vt 0.175594 -0.1445359
vt 0.1534358 -0.1291083
vt 0.1517216 -0.1315703
vt 0.1738799 -0.1469979
vt -0.175594 -0.1445359
vt -0.1738799 -0.1469979
vt -0.1517216 -0.1315703
vt -0.1534358 -0.1291082
vt 0.2550517 0.04141713
vt 0.2613802 0.0593322
vt 0.2359219 0.06832535
vt 0.2295934 0.05041026
vt -0.2550517 0.04141712
vt -0.2295934 0.05041026
vt -0.2359219 0.06832534
vt -0.2613802 0.0593322
vt 0.07241221 0.1023129
vt 0.07508756 0.1009555
vt 0.08368428 0.1178994
vt 0.08100893 0.1192568
vt -0.07241221 0.1023129
vt -0.08100893 0.1192568
vt -0.08368428 0.1178994
vt -0.07508756 0.1009555
vt 0.23434 0.01028589
vt 0.2298678 0.01252197
vt 0.2285262 0.009838691
vt 0.2329983 0.007602613
vt -0.23434 0.01028589
vt -0.2329983 0.007602613
vt -0.2285262 0.009838691
vt -0.2298678 0.01252197
vt -0.1451933 -0.1482158
vt -0.1411247 -0.1511219
vt -0.1382185 -0.1470533
vt -0.1422871 -0.1441471
vt 0.1451933 -0.1482158
vt 0.1422871 -0.1441471
vt 0.1382185 -0.1470533
vt 0.1411247 -0.1511219
vt 0.0082066 0.1181213
vt 0.007197591 0.1152961
vt 0.0119063 0.1136144
vt 0.01291531 0.1164397
vt -0.0082066 0.1181213
vt -0.01291531 0.1164397
vt -0.0119063 0.1136144
vt -0.007197591 0.1152961
vt 0.23434 0.0102859
vt 0.2298678 0.01252198
vt 0.2285262 0.009838701
vt 0.2329983 0.007602625
vt -0.23434 0.0102859
vt -0.2329983 0.007602625
vt -0.2285262 0.009838701
vt -0.2298678 0.01252198
vt -0.1582131 -0.138916
vt -0.1541444 -0.1418221
vt -0.1512382 -0.1377535
vt -0.1553069 -0.1348473
vt 0.1582131 -0.138916
vt 0.1553069 -0.1348473
vt 0.1512382 -0.1377535
vt 0.1541444 -0.1418221
vt -0.006861264 0.1235027
vt -0.007870273 0.1206775
vt -0.003161561 0.1189958
vt -0.002152553 0.121821
vt 0.006861264 0.1235027
vt 0.002152553 0.121821
vt 0.003161561 0.1189958
vt 0.007870272 0.1206775
vt 0.2426134 -0.005590119
vt 0.2381413 -0.003354044
vt 0.2372468 -0.005142897
vt 0.241719 -0.007378972
vt -0.2426134 -0.005590111
vt -0.241719 -0.007378964
vt -0.2372468 -0.005142889
vt -0.2381413 -0.003354036
vt -0.160131 -0.155365
vt -0.1560623 -0.1582712
vt -0.1531561 -0.1542026
vt -0.1572248 -0.1512964
vt 0.1601309 -0.1553651
vt 0.1572247 -0.1512964
vt 0.1531561 -0.1542026
vt 0.1560623 -0.1582713
vt -0.002858193 0.1109237
vt -0.003530867 0.1090402
vt 0.001177839 0.1073586
vt 0.001850513 0.109242
vt 0.002858765 0.1109239
vt -0.001849942 0.1092422
vt -0.00117727 0.1073587
vt 0.003531438 0.1090404
vt 0.3054469 -0.004024979
vt 0.3018691 -0.002236115
vt 0.2978442 -0.01028595
vt 0.3014219 -0.01207482
vt -0.3054469 -0.004024975
vt -0.3014219 -0.01207482
vt -0.2978442 -0.01028595
vt -0.3018691 -0.002236112
vt -0.1858804 -0.2051769
vt -0.1785568 -0.210408
vt -0.1762318 -0.2071531
vt -0.1835554 -0.2019219
vt 0.1858799 -0.205177
vt 0.1835549 -0.2019221
vt 0.1762313 -0.2071532
vt 0.1785563 -0.2104081
vt 0.014597 0.1360145
vt 0.01156997 0.1275388
vt 0.02004564 0.1245118
vt 0.02307268 0.1329875
vt -0.01459702 0.1360145
vt -0.0230727 0.1329875
vt -0.02004566 0.1245118
vt -0.01156999 0.1275388
vt 0.3054469 -0.004024946
vt 0.3018692 -0.002236082
vt 0.2978442 -0.01028592
vt 0.3014219 -0.01207478
vt -0.3054469 -0.00402491
vt -0.301422 -0.01207475
vt -0.2978443 -0.01028589
vt -0.3018692 -0.002236047
vt -0.2021549 -0.1935522
vt -0.1948314 -0.1987834
vt -0.1925064 -0.1955284
vt -0.19983 -0.1902973
vt 0.2021545 -0.1935523
vt 0.1998295 -0.1902974
vt 0.1925059 -0.1955285
vt 0.1948309 -0.1987835
vt -0.004237819 0.1427411
vt -0.007264844 0.1342655
vt 0.001210834 0.1312384
vt 0.004237861 0.1397141
vt 0.004237836 0.1427412
vt -0.004237845 0.1397142
vt -0.001210817 0.1312385
vt 0.007264861 0.1342655
vt -0.3282548 0.03935471
vt -0.3023164 0.05232392
vt -0.3054469 0.05858491
vt -0.3313852 0.04561571
vt 0.3282548 0.0393548
vt 0.3313853 0.0456158
vt 0.3054469 0.058585
vt 0.3023164 0.052324
vt 0.1962259 -0.1990159
vt 0.201922 -0.1949473
vt 0.1850661 -0.171349
vt 0.17937 -0.1754177
vt -0.1962259 -0.1990159
vt -0.17937 -0.1754177
vt -0.1850662 -0.171349
vt -0.2019221 -0.1949473
vt 0.01977656 0.1861959
vt 0.02213092 0.192788
vt 0.01553872 0.1951424
vt 0.01318436 0.1885502
vt -0.01977655 0.1861959
vt -0.01318436 0.1885502
vt -0.01553871 0.1951424
vt -0.0221309 0.1927881
vt -0.1959937 -0.2004108
vt -0.1936688 -0.1971558
vt -0.2009924 -0.1919247
vt -0.2033173 -0.1951796
vt 0.1959938 -0.2004108
vt 0.2033173 -0.1951796
vt 0.2009924 -0.1919247
vt 0.1936688 -0.1971558
vt -0.3327269 0.04606289
vt -0.3287019 0.03801306
vt -0.3251242 0.03980191
vt -0.3291492 0.04785176
vt 0.3327269 0.04606304
vt 0.3291492 0.0478519
vt 0.3251243 0.03980205
vt 0.328702 0.03801319
vt 0.02340893 0.1933934
vt 0.01493326 0.1964204
vt 0.01190623 0.1879447
vt 0.02038191 0.1849177
vt -0.02340893 0.1933934
vt -0.0203819 0.1849177
vt -0.01190623 0.1879447
vt -0.01493326 0.1964204
o group571269158
g mesh571269158
usemtl mat18
f 4/4/1 3/3/1 2/2/1 1/1/1
f 8/8/2 7/7/2 6/6/2 5/5/2
f 2/12/3 8/11/3 5/10/3 1/9/3
f 6/16/4 7/15/4 3/14/4 4/13/4
f 5/20/5 6/19/5 4/18/5 1/17/5
f 3/24/6 7/23/6 8/22/6 2/21/6
o group1603188900
g mesh1603188900
usemtl mat18
f 12/28/7 11/27/7 10/26/7 9/25/7
f 16/32/8 15/31/8 14/30/8 13/29/8
f 10/36/9 16/35/9 13/34/9 9/33/9
f 14/40/10 15/39/10 11/38/10 12/37/10
f 13/44/11 14/43/11 12/42/11 9/41/11
f 11/48/12 15/47/12 16/46/12 10/45/12
o group967915942
g mesh967915942
usemtl mat21
f 19/51/13 18/50/13 17/49/13
f 22/54/14 21/53/14 20/52/14
f 18/58/15 22/57/15 20/56/15 17/55/15
f 24/62/16 21/61/16 19/60/16 23/59/16
f 20/66/17 24/65/17 23/64/17 17/63/17
f 19/70/18 21/69/18 22/68/18 18/67/18
f 17/73/19 23/72/19 19/71/19
f 21/76/20 24/75/20 20/74/20
o group1778555128
g mesh1778555128
usemtl mat18
f 28/80/21 27/79/21 26/78/21 25/77/21
f 32/84/22 31/83/22 30/82/22 29/81/22
f 26/88/23 32/87/23 29/86/23 25/85/23
f 30/92/24 31/91/24 27/90/24 28/89/24
f 29/96/25 30/95/25 28/94/25 25/93/25
f 27/100/26 31/99/26 32/98/26 26/97/26
o group1548720430
g mesh1548720430
usemtl mat18
f 36/104/27 35/103/27 34/102/27 33/101/27
f 40/108/28 39/107/28 38/106/28 37/105/28
f 34/112/29 40/111/29 37/110/29 33/109/29
f 38/116/30 39/115/30 35/114/30 36/113/30
f 37/120/31 38/119/31 36/118/31 33/117/31
f 35/124/32 39/123/32 40/122/32 34/121/32
o group895168117
g mesh895168117
usemtl mat18
f 44/128/33 43/127/33 42/126/33 41/125/33
f 48/132/34 47/131/34 46/130/34 45/129/34
f 42/136/35 48/135/35 45/134/35 41/133/35
f 46/140/36 47/139/36 43/138/36 44/137/36
f 45/144/37 46/143/37 44/142/37 41/141/37
f 43/148/38 47/147/38 48/146/38 42/145/38
o group1371906315
g mesh1371906315
usemtl mat23
f 52/152/39 51/151/39 50/150/39 49/149/39
f 56/156/40 55/155/40 54/154/40 53/153/40
f 50/160/41 56/159/41 53/158/41 49/157/41
f 54/164/42 55/163/42 51/162/42 52/161/42
f 53/168/43 54/167/43 52/166/43 49/165/43
f 51/172/44 55/171/44 56/170/44 50/169/44
o group575475618
g mesh575475618
usemtl mat18
f 60/176/45 59/175/45 58/174/45 57/173/45
f 64/180/46 63/179/46 62/178/46 61/177/46
f 58/184/47 64/183/47 61/182/47 57/181/47
f 62/188/48 63/187/48 59/186/48 60/185/48
f 61/192/49 62/191/49 60/190/49 57/189/49
f 59/196/50 63/195/50 64/194/50 58/193/50
o group46686671
g mesh46686671
usemtl mat21
f 68/200/51 67/199/51 66/198/51 65/197/51
f 72/204/52 71/203/52 70/202/52 69/201/52
f 66/208/53 72/207/53 69/206/53 65/205/53
f 70/212/54 71/211/54 67/210/54 68/209/54
f 69/216/55 70/215/55 68/214/55 65/213/55
f 67/220/56 71/219/56 72/218/56 66/217/56
o group820031791
g mesh820031791
usemtl mat18
f 76/224/57 75/223/57 74/222/57 73/221/57
f 80/228/58 79/227/58 78/226/58 77/225/58
f 74/232/59 80/231/59 77/230/59 73/229/59
f 78/236/60 79/235/60 75/234/60 76/233/60
f 77/240/61 78/239/61 76/238/61 73/237/61
f 75/244/62 79/243/62 80/242/62 74/241/62
o group1618594770
g mesh1618594770
usemtl mat18
f 84/248/63 83/247/63 82/246/63 81/245/63
f 88/252/64 87/251/64 86/250/64 85/249/64
f 82/256/65 88/255/65 85/254/65 81/253/65
f 86/260/66 87/259/66 83/258/66 84/257/66
f 85/264/67 86/263/67 84/262/67 81/261/67
f 83/268/68 87/267/68 88/266/68 82/265/68
o group1650702682
g mesh1650702682
usemtl mat23
f 92/272/69 91/271/69 90/270/69 89/269/69
f 96/276/70 95/275/70 94/274/70 93/273/70
f 90/280/71 96/279/71 93/278/71 89/277/71
f 94/284/72 95/283/72 91/282/72 92/281/72
f 93/288/73 94/287/73 92/286/73 89/285/73
f 91/292/74 95/291/74 96/290/74 90/289/74
o group1110176764
g mesh1110176764
usemtl mat23
f 100/296/75 99/295/75 98/294/75 97/293/75
f 104/300/76 103/299/76 102/298/76 101/297/76
f 98/304/77 104/303/77 101/302/77 97/301/77
f 102/308/78 103/307/78 99/306/78 100/305/78
f 101/312/79 102/311/79 100/310/79 97/309/79
f 99/316/80 103/315/80 104/314/80 98/313/80
o group921074125
g mesh921074125
usemtl mat23
f 108/320/81 107/319/81 106/318/81 105/317/81
f 112/324/82 111/323/82 110/322/82 109/321/82
f 106/328/83 112/327/83 109/326/83 105/325/83
f 110/332/84 111/331/84 107/330/84 108/329/84
f 109/336/85 110/335/85 108/334/85 105/333/85
f 107/340/86 111/339/86 112/338/86 106/337/86
o group2064127136
g mesh2064127136
usemtl mat23
f 116/344/87 115/343/87 114/342/87 113/341/87
f 120/348/88 119/347/88 118/346/88 117/345/88
f 114/352/89 120/351/89 117/350/89 113/349/89
f 118/356/90 119/355/90 115/354/90 116/353/90
f 117/360/91 118/359/91 116/358/91 113/357/91
f 115/364/92 119/363/92 120/362/92 114/361/92
o group1363169703
g mesh1363169703
usemtl mat23
f 124/368/93 123/367/93 122/366/93 121/365/93
f 128/372/94 127/371/94 126/370/94 125/369/94
f 122/376/95 128/375/95 125/374/95 121/373/95
f 126/380/96 127/379/96 123/378/96 124/377/96
f 125/384/97 126/383/97 124/382/97 121/381/97
f 123/388/98 127/387/98 128/386/98 122/385/98
o group1171828856
g mesh1171828856
usemtl mat18
f 132/392/99 131/391/99 130/390/99 129/389/99
f 136/396/100 135/395/100 134/394/100 133/393/100
f 130/400/101 136/399/101 133/398/101 129/397/101
f 134/404/102 135/403/102 131/402/102 132/401/102
f 133/408/103 134/407/103 132/406/103 129/405/103
f 131/412/104 135/411/104 136/410/104 130/409/104
o group1058480944
g mesh1058480944
usemtl mat23
f 140/416/105 139/415/105 138/414/105 137/413/105
f 144/420/106 143/419/106 142/418/106 141/417/106
f 138/424/107 144/423/107 141/422/107 137/421/107
f 142/428/108 143/427/108 139/426/108 140/425/108
f 141/432/109 142/431/109 140/430/109 137/429/109
f 139/436/110 143/435/110 144/434/110 138/433/110
